<?xml version='1.0' encoding='utf-8'?>
<svg xmlns="http://www.w3.org/2000/svg" width="72.223" height="100"> <g> <title>Layer 1</title> <path fill="#385369" d="m68.056,12.5l-11.309,0c-0.619,-2.391 -2.775,-4.167 -5.358,-4.167l-8.474,0c0.092,-0.451 0.141,-0.915 0.141,-1.389c0,-3.827 -3.118,-6.944 -6.948,-6.944c-3.827,0 -6.941,3.117 -6.941,6.944c0,0.475 0.049,0.938 0.141,1.389l-8.475,0c-2.585,0 -4.742,1.774 -5.36,4.167l-11.306,0c-2.303,0 -4.167,1.865 -4.167,4.167l0,79.167c0,2.303 1.864,4.166 4.167,4.166l63.889,0c2.301,0 4.167,-1.863 4.167,-4.167l0,-79.166c0,-2.302 -1.867,-4.167 -4.167,-4.167zm-36.111,-5.556c0,-2.297 1.869,-4.167 4.167,-4.167s4.167,1.869 4.167,4.167c0,0.49 -0.101,0.952 -0.258,1.389c-0.575,1.611 -2.103,2.778 -3.909,2.778c-1.81,0 -3.336,-1.167 -3.909,-2.778c-0.158,-0.437 -0.258,-0.899 -0.258,-1.389zm34.722,84.723l-61.111,0l0,-73.611l9.722,0l0,1.389l0,2.778l41.667,0l0,-2.778l0,-1.389l9.723,0l0,73.611l-0.001,0z" id="svg_1"/> <rect x="33.331" y="75" fill="#000000" id="svg_2"/> <rect x="33.331" y="66.667" fill="#000000" id="svg_3"/> <rect x="11.108" y="83.333" fill="#000000" id="svg_4"/> <path id="svg_6" d="m51.312111,45.09335l-6.312111,-6.311272l3.297074,-3.297053l3.015037,3.1214l6.511863,-6.618247l3.297074,3.297063" stroke-linecap="null" stroke-linejoin="null" stroke-dasharray="null" stroke-width="0" fill="#89ab3e"/> <g id="svg_15"> <rect id="svg_13" fill="#8e86c0" stroke-width="null" stroke-dasharray="null" stroke-linejoin="null" stroke-linecap="null" x="9.5" y="78.768125" width="28.200003" height="2.132129"/> <rect id="svg_14" fill="#8e86c0" stroke-width="null" stroke-dasharray="null" stroke-linejoin="null" stroke-linecap="null" x="9.5" y="75.16406" width="28.200003" height="2.132129"/> </g> <g id="svg_16"> <rect id="svg_17" fill="#8e86c0" stroke-width="null" stroke-dasharray="null" stroke-linejoin="null" stroke-linecap="null" x="9.5" y="39.559212" width="28.200003" height="2.132129"/> <rect id="svg_18" fill="#8e86c0" stroke-width="null" stroke-dasharray="null" stroke-linejoin="null" stroke-linecap="null" x="9.5" y="35.955147" width="28.200003" height="2.132129"/> </g> <g id="svg_19"> <rect id="svg_20" fill="#8e86c0" stroke-width="null" stroke-dasharray="null" stroke-linejoin="null" stroke-linecap="null" x="9.5" y="59.334603" width="28.200003" height="2.132129"/> <rect id="svg_21" fill="#8e86c0" stroke-width="null" stroke-dasharray="null" stroke-linejoin="null" stroke-linecap="null" x="9.5" y="55.730538" width="28.200003" height="2.132129"/> </g> <path id="svg_25" d="m51.31211,63.806495l-6.31211,-6.31128l3.29707,-3.29705l3.01504,3.1214l6.51186,-6.61825l3.29707,3.29707" stroke-linecap="null" stroke-linejoin="null" stroke-dasharray="null" stroke-width="0" fill="#89ab3e"/> <path id="svg_26" d="m51.31211,83.028174l-6.31211,-6.31128l3.29707,-3.29705l3.01504,3.1214l6.51186,-6.61825l3.29707,3.29707" stroke-linecap="null" stroke-linejoin="null" stroke-dasharray="null" stroke-width="0" fill="#89ab3e"/> </g> </svg>